<?xml version="1.0" encoding="UTF-8"?>
<!DOCTYPE svg
PUBLIC "-//W3C//DTD SVG 1.1//EN"
       "http://www.w3.org/Graphics/SVG/1.1/DTD/svg11.dtd">
<svg viewBox="19 0 2232 983" width="2213px" height="983px" xmlns="http://www.w3.org/2000/svg" version="1.1">
   <line x1="440" y1="937" x2="430" y2="937" style="stroke:#0bf;stroke-width:1;"/>
   <line x1="438" y1="638" x2="428" y2="638" style="stroke:#0bf;stroke-width:1;"/>
   <line x1="430" y1="937" x2="438" y2="638" style="stroke:#0bf;stroke-width:1;"/>
   <line x1="432.5" y1="937" x2="436.03553390593" y2="940.53553390593" style="stroke:#0bf;stroke-width:2;"/>
   <line x1="432.5" y1="937" x2="436.03553390593" y2="933.46446609407" style="stroke:#0bf;stroke-width:2;"/>
   <line x1="433" y1="638" x2="436.53553390593" y2="641.53553390593" style="stroke:#0bf;stroke-width:2;"/>
   <line x1="433" y1="638" x2="436.53553390593" y2="634.46446609407" style="stroke:#0bf;stroke-width:2;"/>
   <line x1="618" y1="917" x2="628" y2="917" style="stroke:#0b0;stroke-width:1;"/>
   <line x1="976" y1="593" x2="986" y2="593" style="stroke:#0b0;stroke-width:1;"/>
   <line x1="628" y1="917" x2="976" y2="593" style="stroke:#0b0;stroke-width:1;"/>
   <line x1="625.5" y1="917" x2="621.96446609407" y2="920.53553390593" style="stroke:#0b0;stroke-width:2;"/>
   <line x1="625.5" y1="917" x2="621.96446609407" y2="913.46446609407" style="stroke:#0b0;stroke-width:2;"/>
   <line x1="981" y1="593" x2="977.46446609407" y2="596.53553390593" style="stroke:#0b0;stroke-width:2;"/>
   <line x1="981" y1="593" x2="977.46446609407" y2="589.46446609407" style="stroke:#0b0;stroke-width:2;"/>
   <line x1="1837" y1="127" x2="1847" y2="127" style="stroke:#cb0;stroke-width:1;"/>
   <line x1="2029" y1="141" x2="2039" y2="141" style="stroke:#cb0;stroke-width:1;"/>
   <line x1="1847" y1="127" x2="2029" y2="141" style="stroke:#cb0;stroke-width:1;"/>
   <line x1="1844.5" y1="127" x2="1840.9644660941" y2="130.53553390593" style="stroke:#cb0;stroke-width:2;"/>
   <line x1="1844.5" y1="127" x2="1840.9644660941" y2="123.46446609407" style="stroke:#cb0;stroke-width:2;"/>
   <line x1="2034" y1="141" x2="2030.4644660941" y2="144.53553390593" style="stroke:#cb0;stroke-width:2;"/>
   <line x1="2034" y1="141" x2="2030.4644660941" y2="137.46446609407" style="stroke:#cb0;stroke-width:2;"/>
   <line x1="1361" y1="132" x2="1351" y2="132" style="stroke:#333;stroke-width:1;"/>
   <line x1="1247" y1="152" x2="1237" y2="152" style="stroke:#333;stroke-width:1;"/>
   <line x1="1351" y1="132" x2="1247" y2="152" style="stroke:#333;stroke-width:1;"/>
   <line x1="1353.5" y1="132" x2="1357.0355339059" y2="135.53553390593" style="stroke:#333;stroke-width:2;"/>
   <line x1="1353.5" y1="132" x2="1357.0355339059" y2="128.46446609407" style="stroke:#333;stroke-width:2;"/>
   <line x1="1242" y1="152" x2="1245.5355339059" y2="155.53553390593" style="stroke:#333;stroke-width:2;"/>
   <line x1="1242" y1="152" x2="1245.5355339059" y2="148.46446609407" style="stroke:#333;stroke-width:2;"/>
   <line x1="1904" y1="917" x2="1914" y2="917" style="stroke:#bbb;stroke-width:1;"/>
   <line x1="2029" y1="953" x2="2039" y2="953" style="stroke:#bbb;stroke-width:1;"/>
   <line x1="1914" y1="917" x2="2029" y2="953" style="stroke:#bbb;stroke-width:1;"/>
   <line x1="1911.5" y1="917" x2="1907.9644660941" y2="920.53553390593" style="stroke:#bbb;stroke-width:2;"/>
   <line x1="1911.5" y1="917" x2="1907.9644660941" y2="913.46446609407" style="stroke:#bbb;stroke-width:2;"/>
   <line x1="2034" y1="953" x2="2030.4644660941" y2="956.53553390593" style="stroke:#bbb;stroke-width:2;"/>
   <line x1="2034" y1="953" x2="2030.4644660941" y2="949.46446609407" style="stroke:#bbb;stroke-width:2;"/>
   <line x1="1915" y1="562" x2="1925" y2="562" style="stroke:#333;stroke-width:1;"/>
   <line x1="2032" y1="654" x2="2042" y2="654" style="stroke:#333;stroke-width:1;"/>
   <line x1="1925" y1="562" x2="2032" y2="654" style="stroke:#333;stroke-width:1;"/>
   <line x1="1922.5" y1="562" x2="1918.9644660941" y2="565.53553390593" style="stroke:#333;stroke-width:2;"/>
   <line x1="1922.5" y1="562" x2="1918.9644660941" y2="558.46446609407" style="stroke:#333;stroke-width:2;"/>
   <line x1="2037" y1="654" x2="2033.4644660941" y2="657.53553390593" style="stroke:#333;stroke-width:2;"/>
   <line x1="2037" y1="654" x2="2033.4644660941" y2="650.46446609407" style="stroke:#333;stroke-width:2;"/>
   <line x1="964" y1="424" x2="954" y2="424" style="stroke:#bbb;stroke-width:1;"/>
   <line x1="976" y1="593" x2="986" y2="593" style="stroke:#bbb;stroke-width:1;"/>
   <line x1="954" y1="424" x2="976" y2="593" style="stroke:#bbb;stroke-width:1;"/>
   <line x1="956.5" y1="424" x2="960.03553390593" y2="427.53553390593" style="stroke:#bbb;stroke-width:2;"/>
   <line x1="956.5" y1="424" x2="960.03553390593" y2="420.46446609407" style="stroke:#bbb;stroke-width:2;"/>
   <line x1="981" y1="593" x2="977.46446609407" y2="596.53553390593" style="stroke:#bbb;stroke-width:2;"/>
   <line x1="981" y1="593" x2="977.46446609407" y2="589.46446609407" style="stroke:#bbb;stroke-width:2;"/>
   <line x1="964" y1="404" x2="954" y2="404" style="stroke:#c00;stroke-width:1;"/>
   <line x1="976" y1="593" x2="986" y2="593" style="stroke:#c00;stroke-width:1;"/>
   <line x1="954" y1="404" x2="976" y2="593" style="stroke:#c00;stroke-width:1;"/>
   <line x1="956.5" y1="404" x2="960.03553390593" y2="407.53553390593" style="stroke:#c00;stroke-width:2;"/>
   <line x1="956.5" y1="404" x2="960.03553390593" y2="400.46446609407" style="stroke:#c00;stroke-width:2;"/>
   <line x1="981" y1="593" x2="977.46446609407" y2="596.53553390593" style="stroke:#c00;stroke-width:2;"/>
   <line x1="981" y1="593" x2="977.46446609407" y2="589.46446609407" style="stroke:#c00;stroke-width:2;"/>
   <line x1="238" y1="408" x2="228" y2="408" style="stroke:#c00;stroke-width:1;"/>
   <line x1="240" y1="638" x2="250" y2="638" style="stroke:#c00;stroke-width:1;"/>
   <line x1="228" y1="408" x2="240" y2="638" style="stroke:#c00;stroke-width:1;"/>
   <line x1="230.5" y1="408" x2="234.03553390593" y2="411.53553390593" style="stroke:#c00;stroke-width:2;"/>
   <line x1="230.5" y1="408" x2="234.03553390593" y2="404.46446609407" style="stroke:#c00;stroke-width:2;"/>
   <line x1="245" y1="638" x2="241.46446609407" y2="641.53553390593" style="stroke:#c00;stroke-width:2;"/>
   <line x1="245" y1="638" x2="241.46446609407" y2="634.46446609407" style="stroke:#c00;stroke-width:2;"/>
   <line x1="416" y1="388" x2="426" y2="388" style="stroke:#0b0;stroke-width:1;"/>
   <line x1="976" y1="593" x2="986" y2="593" style="stroke:#0b0;stroke-width:1;"/>
   <line x1="426" y1="388" x2="976" y2="593" style="stroke:#0b0;stroke-width:1;"/>
   <line x1="423.5" y1="388" x2="419.96446609407" y2="391.53553390593" style="stroke:#0b0;stroke-width:2;"/>
   <line x1="423.5" y1="388" x2="419.96446609407" y2="384.46446609407" style="stroke:#0b0;stroke-width:2;"/>
   <line x1="981" y1="593" x2="977.46446609407" y2="596.53553390593" style="stroke:#0b0;stroke-width:2;"/>
   <line x1="981" y1="593" x2="977.46446609407" y2="589.46446609407" style="stroke:#0b0;stroke-width:2;"/>
   <line x1="1098" y1="958" x2="1108" y2="958" style="stroke:#0bf;stroke-width:1;"/>
   <line x1="1264" y1="918" x2="1274" y2="918" style="stroke:#0bf;stroke-width:1;"/>
   <line x1="1108" y1="958" x2="1264" y2="918" style="stroke:#0bf;stroke-width:1;"/>
   <line x1="1105.5" y1="958" x2="1101.9644660941" y2="961.53553390593" style="stroke:#0bf;stroke-width:2;"/>
   <line x1="1105.5" y1="958" x2="1101.9644660941" y2="954.46446609407" style="stroke:#0bf;stroke-width:2;"/>
   <line x1="1269" y1="918" x2="1265.4644660941" y2="921.53553390593" style="stroke:#0bf;stroke-width:2;"/>
   <line x1="1269" y1="918" x2="1265.4644660941" y2="914.46446609407" style="stroke:#0bf;stroke-width:2;"/>
   <line x1="1469" y1="551" x2="1459" y2="551" style="stroke:#333;stroke-width:1;"/>
   <line x1="1174" y1="593" x2="1164" y2="593" style="stroke:#333;stroke-width:1;"/>
   <line x1="1459" y1="551" x2="1174" y2="593" style="stroke:#333;stroke-width:1;"/>
   <line x1="1461.5" y1="551" x2="1465.0355339059" y2="554.53553390593" style="stroke:#333;stroke-width:2;"/>
   <line x1="1461.5" y1="551" x2="1465.0355339059" y2="547.46446609407" style="stroke:#333;stroke-width:2;"/>
   <line x1="1169" y1="593" x2="1172.5355339059" y2="596.53553390593" style="stroke:#333;stroke-width:2;"/>
   <line x1="1169" y1="593" x2="1172.5355339059" y2="589.46446609407" style="stroke:#333;stroke-width:2;"/>
   <line x1="1469" y1="591" x2="1459" y2="591" style="stroke:#cb0;stroke-width:1;"/>
   <line x1="628" y1="897" x2="618" y2="897" style="stroke:#cb0;stroke-width:1;"/>
   <line x1="1459" y1="591" x2="628" y2="897" style="stroke:#cb0;stroke-width:1;"/>
   <line x1="1461.5" y1="591" x2="1465.0355339059" y2="594.53553390593" style="stroke:#cb0;stroke-width:2;"/>
   <line x1="1461.5" y1="591" x2="1465.0355339059" y2="587.46446609407" style="stroke:#cb0;stroke-width:2;"/>
   <line x1="623" y1="897" x2="626.53553390593" y2="900.53553390593" style="stroke:#cb0;stroke-width:2;"/>
   <line x1="623" y1="897" x2="626.53553390593" y2="893.46446609407" style="stroke:#cb0;stroke-width:2;"/>
   <line x1="1469" y1="611" x2="1459" y2="611" style="stroke:#0b0;stroke-width:1;"/>
   <line x1="1152" y1="384" x2="1142" y2="384" style="stroke:#0b0;stroke-width:1;"/>
   <line x1="1459" y1="611" x2="1152" y2="384" style="stroke:#0b0;stroke-width:1;"/>
   <line x1="1461.5" y1="611" x2="1465.0355339059" y2="614.53553390593" style="stroke:#0b0;stroke-width:2;"/>
   <line x1="1461.5" y1="611" x2="1465.0355339059" y2="607.46446609407" style="stroke:#0b0;stroke-width:2;"/>
   <line x1="1147" y1="384" x2="1150.5355339059" y2="387.53553390593" style="stroke:#0b0;stroke-width:2;"/>
   <line x1="1147" y1="384" x2="1150.5355339059" y2="380.46446609407" style="stroke:#0b0;stroke-width:2;"/>
   <line x1="1469" y1="571" x2="1459" y2="571" style="stroke:#0b0;stroke-width:1;"/>
   <line x1="438" y1="638" x2="428" y2="638" style="stroke:#0b0;stroke-width:1;"/>
   <line x1="1459" y1="571" x2="438" y2="638" style="stroke:#0b0;stroke-width:1;"/>
   <line x1="1461.5" y1="571" x2="1465.0355339059" y2="574.53553390593" style="stroke:#0b0;stroke-width:2;"/>
   <line x1="1461.5" y1="571" x2="1465.0355339059" y2="567.46446609407" style="stroke:#0b0;stroke-width:2;"/>
   <line x1="433" y1="638" x2="436.53553390593" y2="641.53553390593" style="stroke:#0b0;stroke-width:2;"/>
   <line x1="433" y1="638" x2="436.53553390593" y2="634.46446609407" style="stroke:#0b0;stroke-width:2;"/>
   <line x1="1469" y1="631" x2="1459" y2="631" style="stroke:#0bf;stroke-width:1;"/>
   <line x1="222" y1="863" x2="212" y2="863" style="stroke:#0bf;stroke-width:1;"/>
   <line x1="1459" y1="631" x2="222" y2="863" style="stroke:#0bf;stroke-width:1;"/>
   <line x1="1461.5" y1="631" x2="1465.0355339059" y2="634.53553390593" style="stroke:#0bf;stroke-width:2;"/>
   <line x1="1461.5" y1="631" x2="1465.0355339059" y2="627.46446609407" style="stroke:#0bf;stroke-width:2;"/>
   <line x1="217" y1="863" x2="220.53553390593" y2="866.53553390593" style="stroke:#0bf;stroke-width:2;"/>
   <line x1="217" y1="863" x2="220.53553390593" y2="859.46446609407" style="stroke:#0bf;stroke-width:2;"/>
   <line x1="834" y1="65" x2="844" y2="65" style="stroke:#cb0;stroke-width:1;"/>
   <line x1="976" y1="593" x2="986" y2="593" style="stroke:#cb0;stroke-width:1;"/>
   <line x1="844" y1="65" x2="976" y2="593" style="stroke:#cb0;stroke-width:1;"/>
   <line x1="841.5" y1="65" x2="837.96446609407" y2="68.535533905933" style="stroke:#cb0;stroke-width:2;"/>
   <line x1="841.5" y1="65" x2="837.96446609407" y2="61.464466094067" style="stroke:#cb0;stroke-width:2;"/>
   <line x1="981" y1="593" x2="977.46446609407" y2="596.53553390593" style="stroke:#cb0;stroke-width:2;"/>
   <line x1="981" y1="593" x2="977.46446609407" y2="589.46446609407" style="stroke:#cb0;stroke-width:2;"/>
   <line x1="428" y1="658" x2="438" y2="658" style="stroke:#cb0;stroke-width:1;"/>
   <line x1="976" y1="593" x2="986" y2="593" style="stroke:#cb0;stroke-width:1;"/>
   <line x1="438" y1="658" x2="976" y2="593" style="stroke:#cb0;stroke-width:1;"/>
   <line x1="435.5" y1="658" x2="431.96446609407" y2="661.53553390593" style="stroke:#cb0;stroke-width:2;"/>
   <line x1="435.5" y1="658" x2="431.96446609407" y2="654.46446609407" style="stroke:#cb0;stroke-width:2;"/>
   <line x1="981" y1="593" x2="977.46446609407" y2="596.53553390593" style="stroke:#cb0;stroke-width:2;"/>
   <line x1="981" y1="593" x2="977.46446609407" y2="589.46446609407" style="stroke:#cb0;stroke-width:2;"/>
   <line x1="212" y1="923" x2="222" y2="923" style="stroke:#c00;stroke-width:1;"/>
   <line x1="430" y1="897" x2="440" y2="897" style="stroke:#c00;stroke-width:1;"/>
   <line x1="222" y1="923" x2="430" y2="897" style="stroke:#c00;stroke-width:1;"/>
   <line x1="219.5" y1="923" x2="215.96446609407" y2="926.53553390593" style="stroke:#c00;stroke-width:2;"/>
   <line x1="219.5" y1="923" x2="215.96446609407" y2="919.46446609407" style="stroke:#c00;stroke-width:2;"/>
   <line x1="435" y1="897" x2="431.46446609407" y2="900.53553390593" style="stroke:#c00;stroke-width:2;"/>
   <line x1="435" y1="897" x2="431.46446609407" y2="893.46446609407" style="stroke:#c00;stroke-width:2;"/>
   <line x1="212" y1="903" x2="222" y2="903" style="stroke:#bbb;stroke-width:1;"/>
   <line x1="240" y1="638" x2="250" y2="638" style="stroke:#bbb;stroke-width:1;"/>
   <line x1="222" y1="903" x2="240" y2="638" style="stroke:#bbb;stroke-width:1;"/>
   <line x1="219.5" y1="903" x2="215.96446609407" y2="906.53553390593" style="stroke:#bbb;stroke-width:2;"/>
   <line x1="219.5" y1="903" x2="215.96446609407" y2="899.46446609407" style="stroke:#bbb;stroke-width:2;"/>
   <line x1="245" y1="638" x2="241.46446609407" y2="641.53553390593" style="stroke:#bbb;stroke-width:2;"/>
   <line x1="245" y1="638" x2="241.46446609407" y2="634.46446609407" style="stroke:#bbb;stroke-width:2;"/>
   <line x1="212" y1="883" x2="222" y2="883" style="stroke:#0bf;stroke-width:1;"/>
   <line x1="976" y1="593" x2="986" y2="593" style="stroke:#0bf;stroke-width:1;"/>
   <line x1="222" y1="883" x2="976" y2="593" style="stroke:#0bf;stroke-width:1;"/>
   <line x1="219.5" y1="883" x2="215.96446609407" y2="886.53553390593" style="stroke:#0bf;stroke-width:2;"/>
   <line x1="219.5" y1="883" x2="215.96446609407" y2="879.46446609407" style="stroke:#0bf;stroke-width:2;"/>
   <line x1="981" y1="593" x2="977.46446609407" y2="596.53553390593" style="stroke:#0bf;stroke-width:2;"/>
   <line x1="981" y1="593" x2="977.46446609407" y2="589.46446609407" style="stroke:#0bf;stroke-width:2;"/>
   <line x1="813" y1="297" x2="823" y2="297" style="stroke:#b0b;stroke-width:1;"/>
   <line x1="976" y1="593" x2="986" y2="593" style="stroke:#b0b;stroke-width:1;"/>
   <line x1="823" y1="297" x2="976" y2="593" style="stroke:#b0b;stroke-width:1;"/>
   <line x1="820.5" y1="297" x2="816.96446609407" y2="300.53553390593" style="stroke:#b0b;stroke-width:2;"/>
   <line x1="820.5" y1="297" x2="816.96446609407" y2="293.46446609407" style="stroke:#b0b;stroke-width:2;"/>
   <line x1="981" y1="593" x2="977.46446609407" y2="596.53553390593" style="stroke:#b0b;stroke-width:2;"/>
   <line x1="981" y1="593" x2="977.46446609407" y2="589.46446609407" style="stroke:#b0b;stroke-width:2;"/>
   <rect width="178" height="20" x="2042" y="624" style="fill:#007;stroke:black;"/>
   <text width="178" height="20" x="2047" y="638" style="fill:#fff;" font-family="Arial" font-size="16px"> breakfast</text>
   <rect width="178" height="20" x="2042" y="644" style="fill:#aea;stroke:black;"/>
   <text width="178" height="20" x="2047" y="658" style="fill:black;" font-family="Arial" font-size="16px">id</text>
   <rect width="178" height="20" x="440" y="867" style="fill:#007;stroke:black;"/>
   <text width="178" height="20" x="445" y="881" style="fill:#fff;" font-family="Arial" font-size="16px"> comments</text>
   <rect width="178" height="20" x="440" y="887" style="fill:#aea;stroke:black;"/>
   <text width="178" height="20" x="445" y="901" style="fill:black;" font-family="Arial" font-size="16px">id</text>
   <rect width="178" height="20" x="440" y="907" style="fill:none;stroke:black;"/>
   <text width="178" height="20" x="445" y="921" style="fill:black;" font-family="Arial" font-size="16px">user_id</text>
   <rect width="178" height="20" x="440" y="927" style="fill:none;stroke:black;"/>
   <text width="178" height="20" x="445" y="941" style="fill:black;" font-family="Arial" font-size="16px">post_id</text>
   <rect width="178" height="20" x="1659" y="77" style="fill:#007;stroke:black;"/>
   <text width="178" height="20" x="1664" y="91" style="fill:#fff;" font-family="Arial" font-size="16px"> component_dinners</text>
   <rect width="178" height="20" x="1659" y="97" style="fill:#aea;stroke:black;"/>
   <text width="178" height="20" x="1664" y="111" style="fill:black;" font-family="Arial" font-size="16px">id</text>
   <rect width="178" height="20" x="1659" y="117" style="fill:none;stroke:black;"/>
   <text width="178" height="20" x="1664" y="131" style="fill:black;" font-family="Arial" font-size="16px">dinner_id</text>
   <rect width="178" height="20" x="1361" y="82" style="fill:#007;stroke:black;"/>
   <text width="178" height="20" x="1366" y="96" style="fill:#fff;" font-family="Arial" font-size="16px"> component_lunches</text>
   <rect width="178" height="20" x="1361" y="102" style="fill:#aea;stroke:black;"/>
   <text width="178" height="20" x="1366" y="116" style="fill:black;" font-family="Arial" font-size="16px">id</text>
   <rect width="178" height="20" x="1361" y="122" style="fill:none;stroke:black;"/>
   <text width="178" height="20" x="1366" y="136" style="fill:black;" font-family="Arial" font-size="16px">lunch_id</text>
   <rect width="178" height="20" x="1726" y="867" style="fill:#007;stroke:black;"/>
   <text width="178" height="20" x="1731" y="881" style="fill:#fff;" font-family="Arial" font-size="16px"> component_snaks</text>
   <rect width="178" height="20" x="1726" y="887" style="fill:#aea;stroke:black;"/>
   <text width="178" height="20" x="1731" y="901" style="fill:black;" font-family="Arial" font-size="16px">id</text>
   <rect width="178" height="20" x="1726" y="907" style="fill:none;stroke:black;"/>
   <text width="178" height="20" x="1731" y="921" style="fill:black;" font-family="Arial" font-size="16px">snak_id</text>
   <rect width="178" height="20" x="1737" y="512" style="fill:#007;stroke:black;"/>
   <text width="178" height="20" x="1742" y="526" style="fill:#fff;" font-family="Arial" font-size="16px"> compontent_breakfast</text>
   <rect width="178" height="20" x="1737" y="532" style="fill:#aea;stroke:black;"/>
   <text width="178" height="20" x="1742" y="546" style="fill:black;" font-family="Arial" font-size="16px">id</text>
   <rect width="178" height="20" x="1737" y="552" style="fill:none;stroke:black;"/>
   <text width="178" height="20" x="1742" y="566" style="fill:black;" font-family="Arial" font-size="16px">breakfast_id</text>
   <rect width="178" height="20" x="2039" y="111" style="fill:#007;stroke:black;"/>
   <text width="178" height="20" x="2044" y="125" style="fill:#fff;" font-family="Arial" font-size="16px"> dinners</text>
   <rect width="178" height="20" x="2039" y="131" style="fill:#aea;stroke:black;"/>
   <text width="178" height="20" x="2044" y="145" style="fill:black;" font-family="Arial" font-size="16px">id</text>
   <rect width="178" height="20" x="1274" y="888" style="fill:#007;stroke:black;"/>
   <text width="178" height="20" x="1279" y="902" style="fill:#fff;" font-family="Arial" font-size="16px"> exercises</text>
   <rect width="178" height="20" x="1274" y="908" style="fill:#aea;stroke:black;"/>
   <text width="178" height="20" x="1279" y="922" style="fill:black;" font-family="Arial" font-size="16px">id</text>
   <rect width="178" height="20" x="133" y="310" style="fill:#007;stroke:black;"/>
   <text width="178" height="20" x="138" y="324" style="fill:#fff;" font-family="Arial" font-size="16px"> failed_jobs</text>
   <rect width="178" height="20" x="133" y="330" style="fill:#aea;stroke:black;"/>
   <text width="178" height="20" x="138" y="344" style="fill:black;" font-family="Arial" font-size="16px">id</text>
   <rect width="178" height="20" x="133" y="350" style="fill:none;stroke:black;"/>
   <text width="178" height="20" x="138" y="364" style="fill:black;" font-family="Arial" font-size="16px">uuid</text>
   <rect width="178" height="20" x="964" y="354" style="fill:#007;stroke:black;"/>
   <text width="178" height="20" x="969" y="368" style="fill:#fff;" font-family="Arial" font-size="16px"> follows</text>
   <rect width="178" height="20" x="964" y="374" style="fill:#aea;stroke:black;"/>
   <text width="178" height="20" x="969" y="388" style="fill:black;" font-family="Arial" font-size="16px">id</text>
   <rect width="178" height="20" x="964" y="394" style="fill:none;stroke:black;"/>
   <text width="178" height="20" x="969" y="408" style="fill:black;" font-family="Arial" font-size="16px">following</text>
   <rect width="178" height="20" x="964" y="414" style="fill:none;stroke:black;"/>
   <text width="178" height="20" x="969" y="428" style="fill:black;" font-family="Arial" font-size="16px">follower</text>
   <rect width="178" height="20" x="238" y="338" style="fill:#007;stroke:black;"/>
   <text width="178" height="20" x="243" y="352" style="fill:#fff;" font-family="Arial" font-size="16px"> likes</text>
   <rect width="178" height="20" x="238" y="358" style="fill:#aea;stroke:black;"/>
   <text width="178" height="20" x="243" y="372" style="fill:black;" font-family="Arial" font-size="16px">id</text>
   <rect width="178" height="20" x="238" y="378" style="fill:none;stroke:black;"/>
   <text width="178" height="20" x="243" y="392" style="fill:black;" font-family="Arial" font-size="16px">user_id</text>
   <rect width="178" height="20" x="238" y="398" style="fill:none;stroke:black;"/>
   <text width="178" height="20" x="243" y="412" style="fill:black;" font-family="Arial" font-size="16px">post_id</text>
   <rect width="178" height="20" x="1059" y="122" style="fill:#007;stroke:black;"/>
   <text width="178" height="20" x="1064" y="136" style="fill:#fff;" font-family="Arial" font-size="16px"> lunches</text>
   <rect width="178" height="20" x="1059" y="142" style="fill:#aea;stroke:black;"/>
   <text width="178" height="20" x="1064" y="156" style="fill:black;" font-family="Arial" font-size="16px">id</text>
   <rect width="178" height="20" x="659" y="305" style="fill:#007;stroke:black;"/>
   <text width="178" height="20" x="664" y="319" style="fill:#fff;" font-family="Arial" font-size="16px"> migrations</text>
   <rect width="178" height="20" x="659" y="325" style="fill:#aea;stroke:black;"/>
   <text width="178" height="20" x="664" y="339" style="fill:black;" font-family="Arial" font-size="16px">id</text>
   <rect width="178" height="20" x="920" y="908" style="fill:#007;stroke:black;"/>
   <text width="178" height="20" x="925" y="922" style="fill:#fff;" font-family="Arial" font-size="16px"> muscles</text>
   <rect width="178" height="20" x="920" y="928" style="fill:#aea;stroke:black;"/>
   <text width="178" height="20" x="925" y="942" style="fill:black;" font-family="Arial" font-size="16px">id</text>
   <rect width="178" height="20" x="920" y="948" style="fill:none;stroke:black;"/>
   <text width="178" height="20" x="925" y="962" style="fill:black;" font-family="Arial" font-size="16px">Exercise_id</text>
   <rect width="178" height="20" x="1469" y="501" style="fill:#007;stroke:black;"/>
   <text width="178" height="20" x="1474" y="515" style="fill:#fff;" font-family="Arial" font-size="16px"> notifications</text>
   <rect width="178" height="20" x="1469" y="521" style="fill:#aea;stroke:black;"/>
   <text width="178" height="20" x="1474" y="535" style="fill:black;" font-family="Arial" font-size="16px">id</text>
   <rect width="178" height="20" x="1469" y="541" style="fill:none;stroke:black;"/>
   <text width="178" height="20" x="1474" y="555" style="fill:black;" font-family="Arial" font-size="16px">user_id</text>
   <rect width="178" height="20" x="1469" y="561" style="fill:none;stroke:black;"/>
   <text width="178" height="20" x="1474" y="575" style="fill:black;" font-family="Arial" font-size="16px">post_id</text>
   <rect width="178" height="20" x="1469" y="581" style="fill:none;stroke:black;"/>
   <text width="178" height="20" x="1474" y="595" style="fill:black;" font-family="Arial" font-size="16px">comment_id</text>
   <rect width="178" height="20" x="1469" y="601" style="fill:none;stroke:black;"/>
   <text width="178" height="20" x="1474" y="615" style="fill:black;" font-family="Arial" font-size="16px">follow_id</text>
   <rect width="178" height="20" x="1469" y="621" style="fill:none;stroke:black;"/>
   <text width="178" height="20" x="1474" y="635" style="fill:black;" font-family="Arial" font-size="16px">replay_id</text>
   <rect width="178" height="20" x="656" y="15" style="fill:#007;stroke:black;"/>
   <text width="178" height="20" x="661" y="29" style="fill:#fff;" font-family="Arial" font-size="16px"> nutrition</text>
   <rect width="178" height="20" x="656" y="35" style="fill:#aea;stroke:black;"/>
   <text width="178" height="20" x="661" y="49" style="fill:black;" font-family="Arial" font-size="16px">id</text>
   <rect width="178" height="20" x="656" y="55" style="fill:none;stroke:black;"/>
   <text width="178" height="20" x="661" y="69" style="fill:black;" font-family="Arial" font-size="16px">user_id</text>
   <rect width="178" height="20" x="335" y="479" style="fill:#007;stroke:black;"/>
   <text width="178" height="20" x="340" y="493" style="fill:#fff;" font-family="Arial" font-size="16px"> password_resets</text>
   <rect width="178" height="20" x="335" y="499" style="fill:none;stroke:black;"/>
   <text width="178" height="20" x="340" y="513" style="fill:black;" font-family="Arial" font-size="16px">email</text>
   <rect width="178" height="20" x="317" y="305" style="fill:#007;stroke:black;"/>
   <text width="178" height="20" x="322" y="319" style="fill:#fff;" font-family="Arial" font-size="16px"> personal_access_tokens</text>
   <rect width="178" height="20" x="317" y="325" style="fill:#aea;stroke:black;"/>
   <text width="178" height="20" x="322" y="339" style="fill:black;" font-family="Arial" font-size="16px">id</text>
   <rect width="178" height="20" x="317" y="345" style="fill:none;stroke:black;"/>
   <text width="178" height="20" x="322" y="359" style="fill:black;" font-family="Arial" font-size="16px">token</text>
   <rect width="178" height="20" x="317" y="365" style="fill:none;stroke:black;"/>
   <text width="178" height="20" x="322" y="379" style="fill:black;" font-family="Arial" font-size="16px">tokenable_type</text>
   <rect width="178" height="20" x="317" y="385" style="fill:none;stroke:black;"/>
   <text width="178" height="20" x="322" y="399" style="fill:black;" font-family="Arial" font-size="16px">tokenable_id</text>
   <rect width="178" height="20" x="250" y="608" style="fill:#007;stroke:black;"/>
   <text width="178" height="20" x="255" y="622" style="fill:#fff;" font-family="Arial" font-size="16px"> posts</text>
   <rect width="178" height="20" x="250" y="628" style="fill:#aea;stroke:black;"/>
   <text width="178" height="20" x="255" y="642" style="fill:black;" font-family="Arial" font-size="16px">id</text>
   <rect width="178" height="20" x="250" y="648" style="fill:none;stroke:black;"/>
   <text width="178" height="20" x="255" y="662" style="fill:black;" font-family="Arial" font-size="16px">user_id</text>
   <rect width="178" height="20" x="34" y="833" style="fill:#007;stroke:black;"/>
   <text width="178" height="20" x="39" y="847" style="fill:#fff;" font-family="Arial" font-size="16px"> replays</text>
   <rect width="178" height="20" x="34" y="853" style="fill:#aea;stroke:black;"/>
   <text width="178" height="20" x="39" y="867" style="fill:black;" font-family="Arial" font-size="16px">id</text>
   <rect width="178" height="20" x="34" y="873" style="fill:none;stroke:black;"/>
   <text width="178" height="20" x="39" y="887" style="fill:black;" font-family="Arial" font-size="16px">user_id</text>
   <rect width="178" height="20" x="34" y="893" style="fill:none;stroke:black;"/>
   <text width="178" height="20" x="39" y="907" style="fill:black;" font-family="Arial" font-size="16px">post_id</text>
   <rect width="178" height="20" x="34" y="913" style="fill:none;stroke:black;"/>
   <text width="178" height="20" x="39" y="927" style="fill:black;" font-family="Arial" font-size="16px">comment_id</text>
   <rect width="178" height="20" x="2039" y="923" style="fill:#007;stroke:black;"/>
   <text width="178" height="20" x="2044" y="937" style="fill:#fff;" font-family="Arial" font-size="16px"> snaks</text>
   <rect width="178" height="20" x="2039" y="943" style="fill:#aea;stroke:black;"/>
   <text width="178" height="20" x="2044" y="957" style="fill:black;" font-family="Arial" font-size="16px">id</text>
   <rect width="178" height="20" x="986" y="563" style="fill:#007;stroke:black;"/>
   <text width="178" height="20" x="991" y="577" style="fill:#fff;" font-family="Arial" font-size="16px"> users</text>
   <rect width="178" height="20" x="986" y="583" style="fill:#aea;stroke:black;"/>
   <text width="178" height="20" x="991" y="597" style="fill:black;" font-family="Arial" font-size="16px">id</text>
   <rect width="178" height="20" x="986" y="603" style="fill:none;stroke:black;"/>
   <text width="178" height="20" x="991" y="617" style="fill:black;" font-family="Arial" font-size="16px">email</text>
   <rect width="178" height="20" x="347" y="24" style="fill:#007;stroke:black;"/>
   <text width="178" height="20" x="352" y="38" style="fill:#fff;" font-family="Arial" font-size="16px"> videos</text>
   <rect width="178" height="20" x="347" y="44" style="fill:#aea;stroke:black;"/>
   <text width="178" height="20" x="352" y="58" style="fill:black;" font-family="Arial" font-size="16px">id</text>
   <rect width="178" height="20" x="635" y="247" style="fill:#007;stroke:black;"/>
   <text width="178" height="20" x="640" y="261" style="fill:#fff;" font-family="Arial" font-size="16px"> workout_data</text>
   <rect width="178" height="20" x="635" y="267" style="fill:#aea;stroke:black;"/>
   <text width="178" height="20" x="640" y="281" style="fill:black;" font-family="Arial" font-size="16px">id</text>
   <rect width="178" height="20" x="635" y="287" style="fill:none;stroke:black;"/>
   <text width="178" height="20" x="640" y="301" style="fill:black;" font-family="Arial" font-size="16px">user_id</text>
</svg>
